<svg width="24" height="24" viewBox="0 0 24 24" fill="none" xmlns="http://www.w3.org/2000/svg">
<path d="M6.07941 20C5.49572 20 5.00322 19.8015 4.60193 19.4046C4.20064 19.0077 4 18.5206 4 17.9433V5.27828C4 4.719 4.25993 4.33111 4.77978 4.11462C5.29963 3.89812 5.7602 3.98833 6.16149 4.38524L7.31064 5.52184L6.38038 6.44195L7.00967 7.03731L7.93994 6.14426L10.7854 8.95871L9.85518 9.87882L10.4845 10.4742L11.3874 9.58114L14.315 12.4497L13.3847 13.3698L14.014 13.9652L14.9169 13.0721L17.7898 15.8866L16.8595 16.8067L17.4888 17.4021L18.4191 16.509L19.5682 17.6727C20.006 18.1057 20.1109 18.6018 19.8829 19.1611C19.6549 19.7204 19.2399 20 18.638 20H6.07941ZM5.96997 18.3763H17.3246L5.64164 6.82081V18.0515C5.64164 18.1417 5.67356 18.2184 5.7374 18.2816C5.80124 18.3447 5.87877 18.3763 5.96997 18.3763V18.3763Z" fill="black"/>
</svg>
