<svg width="24" height="24" viewBox="0 0 24 24" fill="none" xmlns="http://www.w3.org/2000/svg">
<path d="M7.95921 10.2632C7.55658 10.2632 7.2136 10.1215 6.93026 9.83816C6.64693 9.55483 6.50526 9.21184 6.50526 8.80921C6.50526 8.40658 6.64693 8.0636 6.93026 7.78026C7.2136 7.49693 7.55658 7.35526 7.95921 7.35526C8.36184 7.35526 8.70482 7.49693 8.98816 7.78026C9.27149 8.0636 9.41316 8.40658 9.41316 8.80921C9.41316 9.21184 9.27149 9.55483 8.98816 9.83816C8.70482 10.1215 8.36184 10.2632 7.95921 10.2632V10.2632ZM6.28158 20.8211C6.01316 20.8211 5.78202 20.7428 5.58816 20.5862C5.3943 20.4296 5.29737 20.2096 5.29737 19.9263C4.93947 19.9263 4.63377 19.7958 4.38026 19.5349C4.12675 19.2739 4 18.9719 4 18.6289V14.3118C4 14.1329 4.06338 13.98 4.19013 13.8533C4.31689 13.7265 4.46974 13.6632 4.64868 13.6632H6.50526V13.0368C6.50526 12.5447 6.67675 12.1272 7.01974 11.7842C7.36272 11.4412 7.78772 11.2697 8.29474 11.2697C8.54825 11.2697 8.80175 11.3257 9.05526 11.4375C9.30877 11.5493 9.525 11.7022 9.70395 11.8961L10.7329 13.0816C10.8373 13.186 10.9454 13.2904 11.0572 13.3947C11.1691 13.4991 11.2846 13.5886 11.4039 13.6632H17.6447V6.21447C17.6447 5.8864 17.5329 5.6068 17.3092 5.37566C17.0855 5.14452 16.8171 5.02895 16.5039 5.02895C16.3399 5.02895 16.1833 5.05132 16.0342 5.09605C15.8851 5.14079 15.7583 5.22281 15.6539 5.34211L14.5132 6.48289C14.5728 6.7364 14.5803 6.98991 14.5355 7.24342C14.4908 7.49693 14.4013 7.74298 14.2671 7.98158L12.2539 6.05789C12.4776 5.89386 12.7237 5.7932 12.9921 5.75592C13.2605 5.71864 13.5289 5.74474 13.7974 5.83421L14.9382 4.71579C15.1469 4.50702 15.3855 4.33553 15.6539 4.20132C15.9224 4.06711 16.2057 4 16.5039 4C17.1004 4 17.6075 4.21623 18.025 4.64868C18.4425 5.08114 18.6513 5.60307 18.6513 6.21447V13.6632H20.3513C20.5303 13.6632 20.6831 13.7265 20.8099 13.8533C20.9366 13.98 21 14.1329 21 14.3118V18.6289C21 18.9868 20.8695 19.2925 20.6086 19.5461C20.3476 19.7996 20.0456 19.9263 19.7026 19.9263C19.7026 20.2096 19.6057 20.4296 19.4118 20.5862C19.218 20.7428 18.9794 20.8211 18.6961 20.8211H6.28158ZM5.29737 18.9197H19.7026C19.7921 18.9197 19.8629 18.8936 19.9151 18.8414C19.9673 18.7893 19.9934 18.7184 19.9934 18.6289V14.6697H5.00658V18.6289C5.00658 18.7184 5.03268 18.7893 5.08487 18.8414C5.13706 18.8936 5.20789 18.9197 5.29737 18.9197ZM19.9934 18.9197H5.00658H19.9934Z" fill="black"/>
</svg>
