<svg width="24" height="24" viewBox="0 0 24 24" fill="none" xmlns="http://www.w3.org/2000/svg">
<path d="M3.52708 17.4583C3.37431 17.4583 3.24826 17.4087 3.14896 17.3094C3.04965 17.2101 3 17.084 3 16.9312V12.1646C3 11.8438 3.07639 11.5229 3.22917 11.2021C3.38194 10.8812 3.61111 10.6368 3.91667 10.4687V8.0625C3.91667 7.48194 4.11528 6.99306 4.5125 6.59583C4.90972 6.19861 5.39861 6 5.97917 6H10.1958C10.5167 6 10.8069 6.07257 11.0667 6.21771C11.3264 6.36285 11.5403 6.55764 11.7083 6.80208C11.8764 6.55764 12.0865 6.36285 12.3385 6.21771C12.5906 6.07257 12.8771 6 13.1979 6H17.4375C18.0181 6 18.5069 6.19861 18.9042 6.59583C19.3014 6.99306 19.5 7.48194 19.5 8.0625V10.4687C19.8056 10.6368 20.0347 10.8812 20.1875 11.2021C20.3403 11.5229 20.4167 11.8438 20.4167 12.1646V16.9312C20.4167 17.084 20.367 17.2101 20.2677 17.3094C20.1684 17.4087 20.0424 17.4583 19.8896 17.4583C19.7368 17.4583 19.6146 17.4087 19.5229 17.3094C19.4313 17.2101 19.3854 17.084 19.3854 16.9312V15.625H4.03125V16.9312C4.03125 17.084 3.98542 17.2101 3.89375 17.3094C3.80208 17.4087 3.67986 17.4583 3.52708 17.4583V17.4583ZM12.2354 10.1937H18.4688V8.0625C18.4688 7.77222 18.3656 7.52778 18.1594 7.32917C17.9531 7.13056 17.7125 7.03125 17.4375 7.03125H13.1521C12.8924 7.03125 12.6747 7.13438 12.499 7.34063C12.3233 7.54688 12.2354 7.7875 12.2354 8.0625V10.1937ZM4.94792 10.1937H11.1813V8.0625C11.1813 7.7875 11.0934 7.54688 10.9177 7.34063C10.742 7.13438 10.5243 7.03125 10.2646 7.03125H5.97917C5.70417 7.03125 5.46354 7.13438 5.25729 7.34063C5.05104 7.54688 4.94792 7.7875 4.94792 8.0625V10.1937ZM4.03125 14.5937H19.3854V12.1646C19.3854 11.9049 19.2976 11.6872 19.1219 11.5115C18.9462 11.3358 18.7285 11.2479 18.4688 11.2479H4.94792C4.68819 11.2479 4.47049 11.3358 4.29479 11.5115C4.1191 11.6872 4.03125 11.9049 4.03125 12.1646V14.5937ZM19.3854 14.5937H4.03125H19.3854Z" fill="black"/>
</svg>
