<svg width="24" height="24" viewBox="0 0 24 24" fill="none" xmlns="http://www.w3.org/2000/svg">
<path fill-rule="evenodd" clip-rule="evenodd" d="M4.6499 19.35C4.6499 18.7701 5.12 18.3 5.6999 18.3H18.2999C18.8798 18.3 19.3499 18.7701 19.3499 19.35C19.3499 19.9299 18.8798 20.4 18.2999 20.4H5.6999C5.12 20.4 4.6499 19.9299 4.6499 19.35ZM8.10744 11.2575C8.51749 10.8475 9.18231 10.8475 9.59236 11.2575L10.9499 12.6151L10.9499 4.64998C10.9499 4.07008 11.42 3.59998 11.9999 3.59998C12.5798 3.59998 13.0499 4.07008 13.0499 4.64998L13.0499 12.6151L14.4074 11.2575C14.8175 10.8475 15.4823 10.8475 15.8924 11.2575C16.3024 11.6676 16.3024 12.3324 15.8924 12.7424L12.7424 15.8924C12.5455 16.0893 12.2784 16.2 11.9999 16.2C11.7214 16.2 11.4544 16.0893 11.2574 15.8924L8.10744 12.7424C7.69739 12.3324 7.69739 11.6676 8.10744 11.2575Z" fill="black"/>
</svg>
