<svg width="22" height="22" viewBox="0 0 22 22" fill="none" xmlns="http://www.w3.org/2000/svg">
<path d="M3.34704 10.1444H5.01116C5.95618 10.1444 6.72227 10.9105 6.72227 11.8556V12.7111C6.72227 13.6561 7.48836 14.4222 8.43338 14.4222C9.3784 14.4222 10.1445 15.1883 10.1445 16.1333V18.653M7.57783 4.10039V5.43889C7.57783 6.62017 8.53544 7.57778 9.71672 7.57778H10.1445C11.0895 7.57778 11.8556 8.34387 11.8556 9.28889C11.8556 10.2339 12.6217 11 13.5667 11C14.5117 11 15.2778 10.2339 15.2778 9.28889C15.2778 8.34387 16.0439 7.57778 16.9889 7.57778L17.8997 7.57778M13.5667 18.2619V16.1333C13.5667 15.1883 14.3328 14.4222 15.2778 14.4222H17.8997M18.7 11C18.7 15.2526 15.2526 18.7 11 18.7C6.74746 18.7 3.30005 15.2526 3.30005 11C3.30005 6.74741 6.74746 3.3 11 3.3C15.2526 3.3 18.7 6.74741 18.7 11Z" stroke="black" stroke-linecap="round" stroke-linejoin="round"/>
</svg>
