<svg width="24" height="24" viewBox="0 0 24 24" fill="none" xmlns="http://www.w3.org/2000/svg">
<path d="M12.1042 11.5479C12.5014 11.5479 12.8413 11.4066 13.124 11.124C13.4066 10.8413 13.5479 10.5014 13.5479 10.1042C13.5479 9.70694 13.4066 9.36701 13.124 9.08437C12.8413 8.80174 12.5014 8.66042 12.1042 8.66042C11.7069 8.66042 11.367 8.80174 11.0844 9.08437C10.8017 9.36701 10.6604 9.70694 10.6604 10.1042C10.6604 10.5014 10.8017 10.8413 11.0844 11.124C11.367 11.4066 11.7069 11.5479 12.1042 11.5479ZM12.1042 19.5458C14.1056 17.7583 15.6181 16.0587 16.6417 14.4469C17.6653 12.8351 18.1771 11.4486 18.1771 10.2875C18.1771 8.45417 17.5927 6.95312 16.424 5.78437C15.2552 4.61562 13.8153 4.03125 12.1042 4.03125C10.3931 4.03125 8.95312 4.61562 7.78437 5.78437C6.61562 6.95312 6.03125 8.45417 6.03125 10.2875C6.03125 11.4486 6.55069 12.8351 7.58958 14.4469C8.62847 16.0587 10.1333 17.7583 12.1042 19.5458ZM12.1271 20.6687C12.0201 20.6687 11.9247 20.6535 11.8406 20.6229C11.7566 20.5924 11.684 20.5465 11.6229 20.4854C9.39236 18.5146 7.7309 16.6774 6.63854 14.974C5.54618 13.2705 5 11.7083 5 10.2875C5 8.07222 5.71424 6.30382 7.14271 4.98229C8.57118 3.66076 10.225 3 12.1042 3C13.9833 3 15.6372 3.66076 17.0656 4.98229C18.4941 6.30382 19.2083 8.07222 19.2083 10.2875C19.2083 11.7083 18.6622 13.2705 17.5698 14.974C16.4774 16.6774 14.816 18.5146 12.5854 20.4854C12.5243 20.5465 12.4556 20.5924 12.3792 20.6229C12.3028 20.6535 12.2187 20.6687 12.1271 20.6687Z" fill="#171717"/>
</svg>
